%TF.GenerationSoftware,KiCad,Pcbnew,9.0.6*%
%TF.CreationDate,2025-12-19T09:04:58+05:30*%
%TF.ProjectId,HACKPAD,4841434b-5041-4442-9e6b-696361645f70,rev?*%
%TF.SameCoordinates,Original*%
%TF.FileFunction,Copper,L1,Top*%
%TF.FilePolarity,Positive*%
%FSLAX46Y46*%
G04 Gerber Fmt 4.6, Leading zero omitted, Abs format (unit mm)*
G04 Created by KiCad (PCBNEW 9.0.6) date 2025-12-19 09:04:58*
%MOMM*%
%LPD*%
G01*
G04 APERTURE LIST*
G04 Aperture macros list*
%AMRoundRect*
0 Rectangle with rounded corners*
0 $1 Rounding radius*
0 $2 $3 $4 $5 $6 $7 $8 $9 X,Y pos of 4 corners*
0 Add a 4 corners polygon primitive as box body*
4,1,4,$2,$3,$4,$5,$6,$7,$8,$9,$2,$3,0*
0 Add four circle primitives for the rounded corners*
1,1,$1+$1,$2,$3*
1,1,$1+$1,$4,$5*
1,1,$1+$1,$6,$7*
1,1,$1+$1,$8,$9*
0 Add four rect primitives between the rounded corners*
20,1,$1+$1,$2,$3,$4,$5,0*
20,1,$1+$1,$4,$5,$6,$7,0*
20,1,$1+$1,$6,$7,$8,$9,0*
20,1,$1+$1,$8,$9,$2,$3,0*%
G04 Aperture macros list end*
%TA.AperFunction,ComponentPad*%
%ADD10C,2.200000*%
%TD*%
%TA.AperFunction,SMDPad,CuDef*%
%ADD11RoundRect,0.152400X1.063600X0.609600X-1.063600X0.609600X-1.063600X-0.609600X1.063600X-0.609600X0*%
%TD*%
%TA.AperFunction,ComponentPad*%
%ADD12C,1.524000*%
%TD*%
%TA.AperFunction,SMDPad,CuDef*%
%ADD13RoundRect,0.152400X-1.063600X-0.609600X1.063600X-0.609600X1.063600X0.609600X-1.063600X0.609600X0*%
%TD*%
%TA.AperFunction,SMDPad,CuDef*%
%ADD14R,1.600000X0.850000*%
%TD*%
%TA.AperFunction,Conductor*%
%ADD15C,0.200000*%
%TD*%
G04 APERTURE END LIST*
D10*
%TO.P,SW6,1,1*%
%TO.N,GND*%
X171330000Y-99710000D03*
%TO.P,SW6,2,2*%
%TO.N,Net-(U1-GPIO1{slash}RX)*%
X164980000Y-102250000D03*
%TD*%
%TO.P,SW1,1,1*%
%TO.N,GND*%
X133290000Y-80550000D03*
%TO.P,SW1,2,2*%
%TO.N,Net-(U1-GPIO28{slash}ADC2{slash}A2)*%
X126940000Y-83090000D03*
%TD*%
D11*
%TO.P,U1,1,GPIO26/ADC0/A0*%
%TO.N,unconnected-(U1-GPIO26{slash}ADC0{slash}A0-Pad1)*%
X138425000Y-54788500D03*
D12*
X139260000Y-54788500D03*
D11*
%TO.P,U1,2,GPIO27/ADC1/A1*%
%TO.N,Net-(D1-DIN)*%
X138425000Y-57328500D03*
D12*
X139260000Y-57328500D03*
D11*
%TO.P,U1,3,GPIO28/ADC2/A2*%
%TO.N,Net-(U1-GPIO28{slash}ADC2{slash}A2)*%
X138425000Y-59868500D03*
D12*
X139260000Y-59868500D03*
D11*
%TO.P,U1,4,GPIO29/ADC3/A3*%
%TO.N,Net-(U1-GPIO29{slash}ADC3{slash}A3)*%
X138425000Y-62408500D03*
D12*
X139260000Y-62408500D03*
D11*
%TO.P,U1,5,GPIO6/SDA*%
%TO.N,Net-(U1-GPIO6{slash}SDA)*%
X138425000Y-64948500D03*
D12*
X139260000Y-64948500D03*
D11*
%TO.P,U1,6,GPIO7/SCL*%
%TO.N,Net-(U1-GPIO7{slash}SCL)*%
X138425000Y-67488500D03*
D12*
X139260000Y-67488500D03*
D11*
%TO.P,U1,7,GPIO0/TX*%
%TO.N,Net-(U1-GPIO0{slash}TX)*%
X138425000Y-70028500D03*
D12*
X139260000Y-70028500D03*
%TO.P,U1,8,GPIO1/RX*%
%TO.N,Net-(U1-GPIO1{slash}RX)*%
X154500000Y-70028500D03*
D13*
X155335000Y-70028500D03*
D12*
%TO.P,U1,9,GPIO2/SCK*%
%TO.N,Net-(U1-GPIO2{slash}SCK)*%
X154500000Y-67488500D03*
D13*
X155335000Y-67488500D03*
D12*
%TO.P,U1,10,GPIO4/MISO*%
%TO.N,Net-(U1-GPIO4{slash}MISO)*%
X154500000Y-64948500D03*
D13*
X155335000Y-64948500D03*
D12*
%TO.P,U1,11,GPIO3/MOSI*%
%TO.N,Net-(U1-GPIO3{slash}MOSI)*%
X154500000Y-62408500D03*
D13*
X155335000Y-62408500D03*
D12*
%TO.P,U1,12,3V3*%
%TO.N,unconnected-(U1-3V3-Pad12)*%
X154500000Y-59868500D03*
D13*
X155335000Y-59868500D03*
D12*
%TO.P,U1,13,GND*%
%TO.N,GND*%
X154500000Y-57328500D03*
D13*
X155335000Y-57328500D03*
D12*
%TO.P,U1,14,VBUS*%
%TO.N,+5V*%
X154500000Y-54788500D03*
D13*
X155335000Y-54788500D03*
%TD*%
D10*
%TO.P,SW7,1,1*%
%TO.N,GND*%
X133350000Y-118810000D03*
%TO.P,SW7,2,2*%
%TO.N,Net-(U1-GPIO2{slash}SCK)*%
X127000000Y-121350000D03*
%TD*%
%TO.P,SW3,1,1*%
%TO.N,GND*%
X171390000Y-80550000D03*
%TO.P,SW3,2,2*%
%TO.N,Net-(U1-GPIO6{slash}SDA)*%
X165040000Y-83090000D03*
%TD*%
%TO.P,SW9,1,1*%
%TO.N,GND*%
X171400000Y-118870000D03*
%TO.P,SW9,2,2*%
%TO.N,Net-(U1-GPIO3{slash}MOSI)*%
X165050000Y-121410000D03*
%TD*%
%TO.P,SW5,1,1*%
%TO.N,GND*%
X152300000Y-99710000D03*
%TO.P,SW5,2,2*%
%TO.N,Net-(U1-GPIO0{slash}TX)*%
X145950000Y-102250000D03*
%TD*%
%TO.P,SW4,1,1*%
%TO.N,GND*%
X133330000Y-99680000D03*
%TO.P,SW4,2,2*%
%TO.N,Net-(U1-GPIO7{slash}SCL)*%
X126980000Y-102220000D03*
%TD*%
D14*
%TO.P,D1,1,DOUT*%
%TO.N,Net-(D1-DOUT)*%
X126837500Y-61912500D03*
%TO.P,D1,2,VSS*%
%TO.N,GND*%
X126837500Y-63662500D03*
%TO.P,D1,3,DIN*%
%TO.N,Net-(D1-DIN)*%
X130337500Y-63662500D03*
%TO.P,D1,4,VDD*%
%TO.N,+5V*%
X130337500Y-61912500D03*
%TD*%
%TO.P,D2,1,DOUT*%
%TO.N,unconnected-(D2-DOUT-Pad1)*%
X160175000Y-61037500D03*
%TO.P,D2,2,VSS*%
%TO.N,GND*%
X160175000Y-62787500D03*
%TO.P,D2,3,DIN*%
%TO.N,Net-(D1-DOUT)*%
X163675000Y-62787500D03*
%TO.P,D2,4,VDD*%
%TO.N,+5V*%
X163675000Y-61037500D03*
%TD*%
D10*
%TO.P,SW2,1,1*%
%TO.N,GND*%
X152280000Y-80550000D03*
%TO.P,SW2,2,2*%
%TO.N,Net-(U1-GPIO29{slash}ADC3{slash}A3)*%
X145930000Y-83090000D03*
%TD*%
%TO.P,SW8,1,1*%
%TO.N,GND*%
X152320000Y-118870000D03*
%TO.P,SW8,2,2*%
%TO.N,Net-(U1-GPIO4{slash}MISO)*%
X145970000Y-121410000D03*
%TD*%
D15*
%TO.N,Net-(D1-DIN)*%
X138425000Y-57328500D02*
X139260000Y-57328500D01*
X130337500Y-63662500D02*
X131439200Y-63662500D01*
X137773200Y-57328500D02*
X131439200Y-63662500D01*
X138425000Y-57328500D02*
X137773200Y-57328500D01*
%TO.N,+5V*%
X130337500Y-61912500D02*
X131439200Y-61912500D01*
X163675000Y-61037500D02*
X162573300Y-61037500D01*
X156324300Y-54788500D02*
X155335000Y-54788500D01*
X155335000Y-54788500D02*
X154500000Y-54788500D01*
X137137100Y-56214600D02*
X131439200Y-61912500D01*
X162573300Y-61037500D02*
X156324300Y-54788500D01*
X154500000Y-54788500D02*
X153073900Y-56214600D01*
X153073900Y-56214600D02*
X137137100Y-56214600D01*
%TO.N,Net-(D1-DOUT)*%
X131286000Y-64459500D02*
X137147000Y-58598500D01*
X127939200Y-61912500D02*
X127939200Y-63014200D01*
X137147000Y-58598500D02*
X151303200Y-58598500D01*
X127939200Y-63014200D02*
X129384500Y-64459500D01*
X129384500Y-64459500D02*
X131286000Y-64459500D01*
X163675000Y-62787500D02*
X162573300Y-62787500D01*
X126837500Y-61912500D02*
X127939200Y-61912500D01*
X157047900Y-56254100D02*
X162573300Y-61779500D01*
X162573300Y-61779500D02*
X162573300Y-62787500D01*
X151303200Y-58598500D02*
X153647600Y-56254100D01*
X153647600Y-56254100D02*
X157047900Y-56254100D01*
%TO.N,GND*%
X160175000Y-62787500D02*
X159073300Y-62787500D01*
X154876200Y-57328500D02*
X154500000Y-57328500D01*
X171443500Y-99596500D02*
X171330000Y-99710000D01*
X159073300Y-61066800D02*
X159073300Y-62787500D01*
X171443500Y-80603500D02*
X171443500Y-99596500D01*
X155335000Y-57328500D02*
X154917500Y-57328500D01*
X133350000Y-99700000D02*
X133350000Y-118810000D01*
X152280000Y-59548500D02*
X152280000Y-80550000D01*
X133330000Y-99680000D02*
X133350000Y-99700000D01*
X126837500Y-63662500D02*
X127939200Y-63662500D01*
X154500000Y-57328500D02*
X152280000Y-59548500D01*
X127939200Y-75199200D02*
X133290000Y-80550000D01*
X154917500Y-57328500D02*
X154876200Y-57328500D01*
X155335000Y-57328500D02*
X159073300Y-61066800D01*
X127939200Y-63662500D02*
X127939200Y-75199200D01*
X171390000Y-80550000D02*
X171443500Y-80603500D01*
%TO.N,Net-(U1-GPIO28{slash}ADC2{slash}A2)*%
X127510000Y-82520000D02*
X133304600Y-82520000D01*
X126940000Y-83090000D02*
X127510000Y-82520000D01*
X134691700Y-81132900D02*
X134691700Y-63601800D01*
X134691700Y-63601800D02*
X138425000Y-59868500D01*
X133304600Y-82520000D02*
X134691700Y-81132900D01*
X139260000Y-59868500D02*
X138425000Y-59868500D01*
%TO.N,Net-(U1-GPIO29{slash}ADC3{slash}A3)*%
X139260000Y-62408500D02*
X138425000Y-62408500D01*
X145930000Y-69078500D02*
X139260000Y-62408500D01*
X145930000Y-83090000D02*
X145930000Y-69078500D01*
%TO.N,Net-(U1-GPIO6{slash}SDA)*%
X139260000Y-64948500D02*
X138425000Y-64948500D01*
%TO.N,Net-(U1-GPIO7{slash}SCL)*%
X135881900Y-70031600D02*
X138425000Y-67488500D01*
X139260000Y-67488500D02*
X138425000Y-67488500D01*
X126980000Y-102220000D02*
X133330000Y-95870000D01*
X133330000Y-85513000D02*
X135881900Y-82961100D01*
X135881900Y-82961100D02*
X135881900Y-70031600D01*
X133330000Y-95870000D02*
X133330000Y-85513000D01*
%TO.N,Net-(U1-GPIO0{slash}TX)*%
X139260000Y-70028500D02*
X139260000Y-95560000D01*
X138842500Y-70028500D02*
X139260000Y-70028500D01*
X139260000Y-95560000D02*
X145950000Y-102250000D01*
X138425000Y-70028500D02*
X138842500Y-70028500D01*
%TO.N,Net-(U1-GPIO1{slash}RX)*%
X153406100Y-68934600D02*
X154500000Y-70028500D01*
X161215100Y-65922100D02*
X156620900Y-61327900D01*
X155335000Y-70028500D02*
X154500000Y-70028500D01*
X156620900Y-61327900D02*
X154068400Y-61327900D01*
X164980000Y-102250000D02*
X161215100Y-98485100D01*
X154068400Y-61327900D02*
X153406100Y-61990200D01*
X161215100Y-98485100D02*
X161215100Y-65922100D01*
X153406100Y-61990200D02*
X153406100Y-68934600D01*
%TO.N,Net-(U1-GPIO2{slash}SCK)*%
X154917500Y-67488500D02*
X155168100Y-67488500D01*
X149266600Y-100915800D02*
X146081700Y-104100700D01*
X156869300Y-69189700D02*
X156869300Y-93131700D01*
X156869300Y-93131700D02*
X149266600Y-100734400D01*
X155168100Y-67488500D02*
X156869300Y-69189700D01*
X155335000Y-67488500D02*
X154917500Y-67488500D01*
X154917500Y-67488500D02*
X154500000Y-67488500D01*
X133910600Y-120241700D02*
X128108300Y-120241700D01*
X128108300Y-120241700D02*
X127000000Y-121350000D01*
X146081700Y-104100700D02*
X146081700Y-108070600D01*
X149266600Y-100734400D02*
X149266600Y-100915800D01*
X146081700Y-108070600D02*
X133910600Y-120241700D01*
%TO.N,Net-(U1-GPIO4{slash}MISO)*%
X154500000Y-64948500D02*
X155335000Y-64948500D01*
X145970000Y-121410000D02*
X157287000Y-110093000D01*
X157287000Y-110093000D02*
X157287000Y-66900500D01*
X157287000Y-66900500D02*
X155335000Y-64948500D01*
%TO.N,Net-(U1-GPIO3{slash}MOSI)*%
X158673100Y-115033100D02*
X158673100Y-65746600D01*
X154500000Y-62408500D02*
X155335000Y-62408500D01*
X165050000Y-121410000D02*
X158673100Y-115033100D01*
X158673100Y-65746600D02*
X155335000Y-62408500D01*
%TO.N,unconnected-(U1-GPIO26{slash}ADC0{slash}A0-Pad1)*%
X138425000Y-54788500D02*
X139260000Y-54788500D01*
%TO.N,unconnected-(U1-3V3-Pad12)*%
X155335000Y-59868500D02*
X154500000Y-59868500D01*
%TD*%
M02*
