M48
; DRILL file {KiCad 9.0.6} date 2025-12-19T09:05:21+0530
; FORMAT={-:-/ absolute / metric / decimal}
; #@! TF.CreationDate,2025-12-19T09:05:21+05:30
; #@! TF.GenerationSoftware,Kicad,Pcbnew,9.0.6
; #@! TF.FileFunction,NonPlated,1,2,NPTH
FMAT,2
METRIC
; #@! TA.AperFunction,NonPlated,NPTH,ComponentDrill
T1C1.700
; #@! TA.AperFunction,NonPlated,NPTH,ComponentDrill
T2C4.000
%
G90
G05
T1
X125.67Y-85.63
X125.71Y-104.76
X125.73Y-123.89
X135.83Y-85.63
X135.87Y-104.76
X135.89Y-123.89
X144.66Y-85.63
X144.68Y-104.79
X144.7Y-123.95
X154.82Y-85.63
X154.84Y-104.79
X154.86Y-123.95
X163.71Y-104.79
X163.77Y-85.63
X163.78Y-123.95
X173.87Y-104.79
X173.93Y-85.63
X173.94Y-123.95
T2
X130.75Y-85.63
X130.79Y-104.76
X130.81Y-123.89
X149.74Y-85.63
X149.76Y-104.79
X149.78Y-123.95
X168.79Y-104.79
X168.85Y-85.63
X168.86Y-123.95
M30
