%TF.GenerationSoftware,KiCad,Pcbnew,9.0.6*%
%TF.CreationDate,2025-12-19T09:04:58+05:30*%
%TF.ProjectId,HACKPAD,4841434b-5041-4442-9e6b-696361645f70,rev?*%
%TF.SameCoordinates,Original*%
%TF.FileFunction,Soldermask,Bot*%
%TF.FilePolarity,Negative*%
%FSLAX46Y46*%
G04 Gerber Fmt 4.6, Leading zero omitted, Abs format (unit mm)*
G04 Created by KiCad (PCBNEW 9.0.6) date 2025-12-19 09:04:58*
%MOMM*%
%LPD*%
G01*
G04 APERTURE LIST*
%ADD10C,1.700000*%
%ADD11C,4.000000*%
%ADD12C,2.200000*%
%ADD13C,1.524000*%
G04 APERTURE END LIST*
D10*
%TO.C,SW6*%
X163710000Y-104790000D03*
D11*
X168790000Y-104790000D03*
D10*
X173870000Y-104790000D03*
D12*
X171330000Y-99710000D03*
X164980000Y-102250000D03*
%TD*%
D10*
%TO.C,SW1*%
X125670000Y-85630000D03*
D11*
X130750000Y-85630000D03*
D10*
X135830000Y-85630000D03*
D12*
X133290000Y-80550000D03*
X126940000Y-83090000D03*
%TD*%
D13*
%TO.C,U1*%
X139260000Y-54788500D03*
X139260000Y-57328500D03*
X139260000Y-59868500D03*
X139260000Y-62408500D03*
X139260000Y-64948500D03*
X139260000Y-67488500D03*
X139260000Y-70028500D03*
X154500000Y-70028500D03*
X154500000Y-67488500D03*
X154500000Y-64948500D03*
X154500000Y-62408500D03*
X154500000Y-59868500D03*
X154500000Y-57328500D03*
X154500000Y-54788500D03*
%TD*%
D10*
%TO.C,SW7*%
X125730000Y-123890000D03*
D11*
X130810000Y-123890000D03*
D10*
X135890000Y-123890000D03*
D12*
X133350000Y-118810000D03*
X127000000Y-121350000D03*
%TD*%
D10*
%TO.C,SW3*%
X163770000Y-85630000D03*
D11*
X168850000Y-85630000D03*
D10*
X173930000Y-85630000D03*
D12*
X171390000Y-80550000D03*
X165040000Y-83090000D03*
%TD*%
D10*
%TO.C,SW9*%
X163780000Y-123950000D03*
D11*
X168860000Y-123950000D03*
D10*
X173940000Y-123950000D03*
D12*
X171400000Y-118870000D03*
X165050000Y-121410000D03*
%TD*%
D10*
%TO.C,SW5*%
X144680000Y-104790000D03*
D11*
X149760000Y-104790000D03*
D10*
X154840000Y-104790000D03*
D12*
X152300000Y-99710000D03*
X145950000Y-102250000D03*
%TD*%
D10*
%TO.C,SW4*%
X125710000Y-104760000D03*
D11*
X130790000Y-104760000D03*
D10*
X135870000Y-104760000D03*
D12*
X133330000Y-99680000D03*
X126980000Y-102220000D03*
%TD*%
D10*
%TO.C,SW2*%
X144660000Y-85630000D03*
D11*
X149740000Y-85630000D03*
D10*
X154820000Y-85630000D03*
D12*
X152280000Y-80550000D03*
X145930000Y-83090000D03*
%TD*%
D10*
%TO.C,SW8*%
X144700000Y-123950000D03*
D11*
X149780000Y-123950000D03*
D10*
X154860000Y-123950000D03*
D12*
X152320000Y-118870000D03*
X145970000Y-121410000D03*
%TD*%
M02*
