M48
; DRILL file {KiCad 9.0.6} date 2025-12-19T09:05:21+0530
; FORMAT={-:-/ absolute / metric / decimal}
; #@! TF.CreationDate,2025-12-19T09:05:21+05:30
; #@! TF.GenerationSoftware,Kicad,Pcbnew,9.0.6
; #@! TF.FileFunction,Plated,1,2,PTH
FMAT,2
METRIC
; #@! TA.AperFunction,Plated,PTH,ComponentDrill
T1C0.889
; #@! TA.AperFunction,Plated,PTH,ComponentDrill
T2C1.500
%
G90
G05
T1
X139.26Y-54.788
X139.26Y-57.328
X139.26Y-59.868
X139.26Y-62.408
X139.26Y-64.948
X139.26Y-67.489
X139.26Y-70.028
X154.5Y-54.788
X154.5Y-57.328
X154.5Y-59.868
X154.5Y-62.408
X154.5Y-64.948
X154.5Y-67.489
X154.5Y-70.028
T2
X126.94Y-83.09
X126.98Y-102.22
X127.0Y-121.35
X133.29Y-80.55
X133.33Y-99.68
X133.35Y-118.81
X145.93Y-83.09
X145.95Y-102.25
X145.97Y-121.41
X152.28Y-80.55
X152.3Y-99.71
X152.32Y-118.87
X164.98Y-102.25
X165.04Y-83.09
X165.05Y-121.41
X171.33Y-99.71
X171.39Y-80.55
X171.4Y-118.87
M30
