%TF.GenerationSoftware,KiCad,Pcbnew,9.0.6*%
%TF.CreationDate,2025-12-19T09:04:58+05:30*%
%TF.ProjectId,HACKPAD,4841434b-5041-4442-9e6b-696361645f70,rev?*%
%TF.SameCoordinates,Original*%
%TF.FileFunction,Legend,Top*%
%TF.FilePolarity,Positive*%
%FSLAX46Y46*%
G04 Gerber Fmt 4.6, Leading zero omitted, Abs format (unit mm)*
G04 Created by KiCad (PCBNEW 9.0.6) date 2025-12-19 09:04:58*
%MOMM*%
%LPD*%
G01*
G04 APERTURE LIST*
%ADD10C,0.150000*%
%ADD11C,0.101600*%
%ADD12C,0.120000*%
%ADD13C,0.127000*%
%ADD14C,0.100000*%
%ADD15C,0.504000*%
G04 APERTURE END LIST*
D10*
X120538303Y-54647875D02*
X120538303Y-53647875D01*
X120538303Y-53647875D02*
X120954969Y-54362160D01*
X120954969Y-54362160D02*
X121371636Y-53647875D01*
X121371636Y-53647875D02*
X121371636Y-54647875D01*
X121966874Y-54647875D02*
X121966874Y-53981208D01*
X121966874Y-53647875D02*
X121907350Y-53695494D01*
X121907350Y-53695494D02*
X121966874Y-53743113D01*
X121966874Y-53743113D02*
X122026397Y-53695494D01*
X122026397Y-53695494D02*
X121966874Y-53647875D01*
X121966874Y-53647875D02*
X121966874Y-53743113D01*
X122383540Y-53981208D02*
X122859731Y-53981208D01*
X122562112Y-53647875D02*
X122562112Y-54505017D01*
X122562112Y-54505017D02*
X122621635Y-54600256D01*
X122621635Y-54600256D02*
X122740683Y-54647875D01*
X122740683Y-54647875D02*
X122859731Y-54647875D01*
X123276398Y-54647875D02*
X123276398Y-53981208D01*
X123276398Y-54171684D02*
X123335921Y-54076446D01*
X123335921Y-54076446D02*
X123395445Y-54028827D01*
X123395445Y-54028827D02*
X123514493Y-53981208D01*
X123514493Y-53981208D02*
X123633540Y-53981208D01*
X124585922Y-54647875D02*
X124585922Y-54124065D01*
X124585922Y-54124065D02*
X124526398Y-54028827D01*
X124526398Y-54028827D02*
X124407350Y-53981208D01*
X124407350Y-53981208D02*
X124169255Y-53981208D01*
X124169255Y-53981208D02*
X124050208Y-54028827D01*
X124585922Y-54600256D02*
X124466874Y-54647875D01*
X124466874Y-54647875D02*
X124169255Y-54647875D01*
X124169255Y-54647875D02*
X124050208Y-54600256D01*
X124050208Y-54600256D02*
X123990684Y-54505017D01*
X123990684Y-54505017D02*
X123990684Y-54409779D01*
X123990684Y-54409779D02*
X124050208Y-54314541D01*
X124050208Y-54314541D02*
X124169255Y-54266922D01*
X124169255Y-54266922D02*
X124466874Y-54266922D01*
X124466874Y-54266922D02*
X124585922Y-54219303D01*
X125062112Y-53647875D02*
X125895445Y-54647875D01*
X125895445Y-53647875D02*
X125062112Y-54647875D01*
X127204969Y-53981208D02*
X127502588Y-54647875D01*
X127502588Y-54647875D02*
X127800207Y-53981208D01*
X128931159Y-54647875D02*
X128216874Y-54647875D01*
X128574017Y-54647875D02*
X128574017Y-53647875D01*
X128574017Y-53647875D02*
X128454969Y-53790732D01*
X128454969Y-53790732D02*
X128335921Y-53885970D01*
X128335921Y-53885970D02*
X128216874Y-53933589D01*
X129466874Y-54552636D02*
X129526397Y-54600256D01*
X129526397Y-54600256D02*
X129466874Y-54647875D01*
X129466874Y-54647875D02*
X129407350Y-54600256D01*
X129407350Y-54600256D02*
X129466874Y-54552636D01*
X129466874Y-54552636D02*
X129466874Y-54647875D01*
X130300207Y-53647875D02*
X130419254Y-53647875D01*
X130419254Y-53647875D02*
X130538302Y-53695494D01*
X130538302Y-53695494D02*
X130597826Y-53743113D01*
X130597826Y-53743113D02*
X130657350Y-53838351D01*
X130657350Y-53838351D02*
X130716873Y-54028827D01*
X130716873Y-54028827D02*
X130716873Y-54266922D01*
X130716873Y-54266922D02*
X130657350Y-54457398D01*
X130657350Y-54457398D02*
X130597826Y-54552636D01*
X130597826Y-54552636D02*
X130538302Y-54600256D01*
X130538302Y-54600256D02*
X130419254Y-54647875D01*
X130419254Y-54647875D02*
X130300207Y-54647875D01*
X130300207Y-54647875D02*
X130181159Y-54600256D01*
X130181159Y-54600256D02*
X130121635Y-54552636D01*
X130121635Y-54552636D02*
X130062112Y-54457398D01*
X130062112Y-54457398D02*
X130002588Y-54266922D01*
X130002588Y-54266922D02*
X130002588Y-54028827D01*
X130002588Y-54028827D02*
X130062112Y-53838351D01*
X130062112Y-53838351D02*
X130121635Y-53743113D01*
X130121635Y-53743113D02*
X130181159Y-53695494D01*
X130181159Y-53695494D02*
X130300207Y-53647875D01*
X120538303Y-56257819D02*
X120538303Y-55257819D01*
X120538303Y-55257819D02*
X120954969Y-55972104D01*
X120954969Y-55972104D02*
X121371636Y-55257819D01*
X121371636Y-55257819D02*
X121371636Y-56257819D01*
X121966874Y-56257819D02*
X121966874Y-55591152D01*
X121966874Y-55257819D02*
X121907350Y-55305438D01*
X121907350Y-55305438D02*
X121966874Y-55353057D01*
X121966874Y-55353057D02*
X122026397Y-55305438D01*
X122026397Y-55305438D02*
X121966874Y-55257819D01*
X121966874Y-55257819D02*
X121966874Y-55353057D01*
X123097826Y-56210200D02*
X122978778Y-56257819D01*
X122978778Y-56257819D02*
X122740683Y-56257819D01*
X122740683Y-56257819D02*
X122621635Y-56210200D01*
X122621635Y-56210200D02*
X122562112Y-56162580D01*
X122562112Y-56162580D02*
X122502588Y-56067342D01*
X122502588Y-56067342D02*
X122502588Y-55781628D01*
X122502588Y-55781628D02*
X122562112Y-55686390D01*
X122562112Y-55686390D02*
X122621635Y-55638771D01*
X122621635Y-55638771D02*
X122740683Y-55591152D01*
X122740683Y-55591152D02*
X122978778Y-55591152D01*
X122978778Y-55591152D02*
X123097826Y-55638771D01*
X123633541Y-56257819D02*
X123633541Y-55591152D01*
X123633541Y-55781628D02*
X123693064Y-55686390D01*
X123693064Y-55686390D02*
X123752588Y-55638771D01*
X123752588Y-55638771D02*
X123871636Y-55591152D01*
X123871636Y-55591152D02*
X123990683Y-55591152D01*
X124585922Y-56257819D02*
X124466874Y-56210200D01*
X124466874Y-56210200D02*
X124407351Y-56162580D01*
X124407351Y-56162580D02*
X124347827Y-56067342D01*
X124347827Y-56067342D02*
X124347827Y-55781628D01*
X124347827Y-55781628D02*
X124407351Y-55686390D01*
X124407351Y-55686390D02*
X124466874Y-55638771D01*
X124466874Y-55638771D02*
X124585922Y-55591152D01*
X124585922Y-55591152D02*
X124764493Y-55591152D01*
X124764493Y-55591152D02*
X124883541Y-55638771D01*
X124883541Y-55638771D02*
X124943065Y-55686390D01*
X124943065Y-55686390D02*
X125002589Y-55781628D01*
X125002589Y-55781628D02*
X125002589Y-56067342D01*
X125002589Y-56067342D02*
X124943065Y-56162580D01*
X124943065Y-56162580D02*
X124883541Y-56210200D01*
X124883541Y-56210200D02*
X124764493Y-56257819D01*
X124764493Y-56257819D02*
X124585922Y-56257819D01*
X125538303Y-56257819D02*
X125538303Y-55257819D01*
X125538303Y-55257819D02*
X126014493Y-55257819D01*
X126014493Y-55257819D02*
X126133541Y-55305438D01*
X126133541Y-55305438D02*
X126193064Y-55353057D01*
X126193064Y-55353057D02*
X126252588Y-55448295D01*
X126252588Y-55448295D02*
X126252588Y-55591152D01*
X126252588Y-55591152D02*
X126193064Y-55686390D01*
X126193064Y-55686390D02*
X126133541Y-55734009D01*
X126133541Y-55734009D02*
X126014493Y-55781628D01*
X126014493Y-55781628D02*
X125538303Y-55781628D01*
X127324017Y-56257819D02*
X127324017Y-55734009D01*
X127324017Y-55734009D02*
X127264493Y-55638771D01*
X127264493Y-55638771D02*
X127145445Y-55591152D01*
X127145445Y-55591152D02*
X126907350Y-55591152D01*
X126907350Y-55591152D02*
X126788303Y-55638771D01*
X127324017Y-56210200D02*
X127204969Y-56257819D01*
X127204969Y-56257819D02*
X126907350Y-56257819D01*
X126907350Y-56257819D02*
X126788303Y-56210200D01*
X126788303Y-56210200D02*
X126728779Y-56114961D01*
X126728779Y-56114961D02*
X126728779Y-56019723D01*
X126728779Y-56019723D02*
X126788303Y-55924485D01*
X126788303Y-55924485D02*
X126907350Y-55876866D01*
X126907350Y-55876866D02*
X127204969Y-55876866D01*
X127204969Y-55876866D02*
X127324017Y-55829247D01*
X128454969Y-56257819D02*
X128454969Y-55257819D01*
X128454969Y-56210200D02*
X128335921Y-56257819D01*
X128335921Y-56257819D02*
X128097826Y-56257819D01*
X128097826Y-56257819D02*
X127978778Y-56210200D01*
X127978778Y-56210200D02*
X127919255Y-56162580D01*
X127919255Y-56162580D02*
X127859731Y-56067342D01*
X127859731Y-56067342D02*
X127859731Y-55781628D01*
X127859731Y-55781628D02*
X127919255Y-55686390D01*
X127919255Y-55686390D02*
X127978778Y-55638771D01*
X127978778Y-55638771D02*
X128097826Y-55591152D01*
X128097826Y-55591152D02*
X128335921Y-55591152D01*
X128335921Y-55591152D02*
X128454969Y-55638771D01*
X142481541Y-59575819D02*
X143148207Y-60575819D01*
X143148207Y-59575819D02*
X142481541Y-60575819D01*
X143529160Y-60575819D02*
X143529160Y-59575819D01*
X143957731Y-60290104D02*
X144433921Y-60290104D01*
X143862493Y-60575819D02*
X144195826Y-59575819D01*
X144195826Y-59575819D02*
X144529159Y-60575819D01*
X145052969Y-59575819D02*
X145243445Y-59575819D01*
X145243445Y-59575819D02*
X145338683Y-59623438D01*
X145338683Y-59623438D02*
X145433921Y-59718676D01*
X145433921Y-59718676D02*
X145481540Y-59909152D01*
X145481540Y-59909152D02*
X145481540Y-60242485D01*
X145481540Y-60242485D02*
X145433921Y-60432961D01*
X145433921Y-60432961D02*
X145338683Y-60528200D01*
X145338683Y-60528200D02*
X145243445Y-60575819D01*
X145243445Y-60575819D02*
X145052969Y-60575819D01*
X145052969Y-60575819D02*
X144957731Y-60528200D01*
X144957731Y-60528200D02*
X144862493Y-60432961D01*
X144862493Y-60432961D02*
X144814874Y-60242485D01*
X144814874Y-60242485D02*
X144814874Y-59909152D01*
X144814874Y-59909152D02*
X144862493Y-59718676D01*
X144862493Y-59718676D02*
X144957731Y-59623438D01*
X144957731Y-59623438D02*
X145052969Y-59575819D01*
X146672017Y-60575819D02*
X146672017Y-59575819D01*
X146672017Y-60052009D02*
X147243445Y-60052009D01*
X147243445Y-60575819D02*
X147243445Y-59575819D01*
X147719636Y-60052009D02*
X148052969Y-60052009D01*
X148195826Y-60575819D02*
X147719636Y-60575819D01*
X147719636Y-60575819D02*
X147719636Y-59575819D01*
X147719636Y-59575819D02*
X148195826Y-59575819D01*
X149195826Y-60575819D02*
X148862493Y-60099628D01*
X148624398Y-60575819D02*
X148624398Y-59575819D01*
X148624398Y-59575819D02*
X149005350Y-59575819D01*
X149005350Y-59575819D02*
X149100588Y-59623438D01*
X149100588Y-59623438D02*
X149148207Y-59671057D01*
X149148207Y-59671057D02*
X149195826Y-59766295D01*
X149195826Y-59766295D02*
X149195826Y-59909152D01*
X149195826Y-59909152D02*
X149148207Y-60004390D01*
X149148207Y-60004390D02*
X149100588Y-60052009D01*
X149100588Y-60052009D02*
X149005350Y-60099628D01*
X149005350Y-60099628D02*
X148624398Y-60099628D01*
X149624398Y-60052009D02*
X149957731Y-60052009D01*
X150100588Y-60575819D02*
X149624398Y-60575819D01*
X149624398Y-60575819D02*
X149624398Y-59575819D01*
X149624398Y-59575819D02*
X150100588Y-59575819D01*
X150529160Y-60480580D02*
X150576779Y-60528200D01*
X150576779Y-60528200D02*
X150529160Y-60575819D01*
X150529160Y-60575819D02*
X150481541Y-60528200D01*
X150481541Y-60528200D02*
X150529160Y-60480580D01*
X150529160Y-60480580D02*
X150529160Y-60575819D01*
X150529160Y-60194866D02*
X150481541Y-59623438D01*
X150481541Y-59623438D02*
X150529160Y-59575819D01*
X150529160Y-59575819D02*
X150576779Y-59623438D01*
X150576779Y-59623438D02*
X150529160Y-60194866D01*
X150529160Y-60194866D02*
X150529160Y-59575819D01*
X151005350Y-60480580D02*
X151052969Y-60528200D01*
X151052969Y-60528200D02*
X151005350Y-60575819D01*
X151005350Y-60575819D02*
X150957731Y-60528200D01*
X150957731Y-60528200D02*
X151005350Y-60480580D01*
X151005350Y-60480580D02*
X151005350Y-60575819D01*
X151005350Y-60194866D02*
X150957731Y-59623438D01*
X150957731Y-59623438D02*
X151005350Y-59575819D01*
X151005350Y-59575819D02*
X151052969Y-59623438D01*
X151052969Y-59623438D02*
X151005350Y-60194866D01*
X151005350Y-60194866D02*
X151005350Y-59575819D01*
X167456667Y-97323200D02*
X167599524Y-97370819D01*
X167599524Y-97370819D02*
X167837619Y-97370819D01*
X167837619Y-97370819D02*
X167932857Y-97323200D01*
X167932857Y-97323200D02*
X167980476Y-97275580D01*
X167980476Y-97275580D02*
X168028095Y-97180342D01*
X168028095Y-97180342D02*
X168028095Y-97085104D01*
X168028095Y-97085104D02*
X167980476Y-96989866D01*
X167980476Y-96989866D02*
X167932857Y-96942247D01*
X167932857Y-96942247D02*
X167837619Y-96894628D01*
X167837619Y-96894628D02*
X167647143Y-96847009D01*
X167647143Y-96847009D02*
X167551905Y-96799390D01*
X167551905Y-96799390D02*
X167504286Y-96751771D01*
X167504286Y-96751771D02*
X167456667Y-96656533D01*
X167456667Y-96656533D02*
X167456667Y-96561295D01*
X167456667Y-96561295D02*
X167504286Y-96466057D01*
X167504286Y-96466057D02*
X167551905Y-96418438D01*
X167551905Y-96418438D02*
X167647143Y-96370819D01*
X167647143Y-96370819D02*
X167885238Y-96370819D01*
X167885238Y-96370819D02*
X168028095Y-96418438D01*
X168361429Y-96370819D02*
X168599524Y-97370819D01*
X168599524Y-97370819D02*
X168790000Y-96656533D01*
X168790000Y-96656533D02*
X168980476Y-97370819D01*
X168980476Y-97370819D02*
X169218572Y-96370819D01*
X170028095Y-96370819D02*
X169837619Y-96370819D01*
X169837619Y-96370819D02*
X169742381Y-96418438D01*
X169742381Y-96418438D02*
X169694762Y-96466057D01*
X169694762Y-96466057D02*
X169599524Y-96608914D01*
X169599524Y-96608914D02*
X169551905Y-96799390D01*
X169551905Y-96799390D02*
X169551905Y-97180342D01*
X169551905Y-97180342D02*
X169599524Y-97275580D01*
X169599524Y-97275580D02*
X169647143Y-97323200D01*
X169647143Y-97323200D02*
X169742381Y-97370819D01*
X169742381Y-97370819D02*
X169932857Y-97370819D01*
X169932857Y-97370819D02*
X170028095Y-97323200D01*
X170028095Y-97323200D02*
X170075714Y-97275580D01*
X170075714Y-97275580D02*
X170123333Y-97180342D01*
X170123333Y-97180342D02*
X170123333Y-96942247D01*
X170123333Y-96942247D02*
X170075714Y-96847009D01*
X170075714Y-96847009D02*
X170028095Y-96799390D01*
X170028095Y-96799390D02*
X169932857Y-96751771D01*
X169932857Y-96751771D02*
X169742381Y-96751771D01*
X169742381Y-96751771D02*
X169647143Y-96799390D01*
X169647143Y-96799390D02*
X169599524Y-96847009D01*
X169599524Y-96847009D02*
X169551905Y-96942247D01*
X129416667Y-78163200D02*
X129559524Y-78210819D01*
X129559524Y-78210819D02*
X129797619Y-78210819D01*
X129797619Y-78210819D02*
X129892857Y-78163200D01*
X129892857Y-78163200D02*
X129940476Y-78115580D01*
X129940476Y-78115580D02*
X129988095Y-78020342D01*
X129988095Y-78020342D02*
X129988095Y-77925104D01*
X129988095Y-77925104D02*
X129940476Y-77829866D01*
X129940476Y-77829866D02*
X129892857Y-77782247D01*
X129892857Y-77782247D02*
X129797619Y-77734628D01*
X129797619Y-77734628D02*
X129607143Y-77687009D01*
X129607143Y-77687009D02*
X129511905Y-77639390D01*
X129511905Y-77639390D02*
X129464286Y-77591771D01*
X129464286Y-77591771D02*
X129416667Y-77496533D01*
X129416667Y-77496533D02*
X129416667Y-77401295D01*
X129416667Y-77401295D02*
X129464286Y-77306057D01*
X129464286Y-77306057D02*
X129511905Y-77258438D01*
X129511905Y-77258438D02*
X129607143Y-77210819D01*
X129607143Y-77210819D02*
X129845238Y-77210819D01*
X129845238Y-77210819D02*
X129988095Y-77258438D01*
X130321429Y-77210819D02*
X130559524Y-78210819D01*
X130559524Y-78210819D02*
X130750000Y-77496533D01*
X130750000Y-77496533D02*
X130940476Y-78210819D01*
X130940476Y-78210819D02*
X131178572Y-77210819D01*
X132083333Y-78210819D02*
X131511905Y-78210819D01*
X131797619Y-78210819D02*
X131797619Y-77210819D01*
X131797619Y-77210819D02*
X131702381Y-77353676D01*
X131702381Y-77353676D02*
X131607143Y-77448914D01*
X131607143Y-77448914D02*
X131511905Y-77496533D01*
D11*
X137896190Y-50061979D02*
X137896190Y-50576026D01*
X137896190Y-50576026D02*
X137926428Y-50636502D01*
X137926428Y-50636502D02*
X137956666Y-50666741D01*
X137956666Y-50666741D02*
X138017142Y-50696979D01*
X138017142Y-50696979D02*
X138138095Y-50696979D01*
X138138095Y-50696979D02*
X138198571Y-50666741D01*
X138198571Y-50666741D02*
X138228809Y-50636502D01*
X138228809Y-50636502D02*
X138259047Y-50576026D01*
X138259047Y-50576026D02*
X138259047Y-50061979D01*
X138894047Y-50696979D02*
X138531190Y-50696979D01*
X138712618Y-50696979D02*
X138712618Y-50061979D01*
X138712618Y-50061979D02*
X138652142Y-50152693D01*
X138652142Y-50152693D02*
X138591666Y-50213169D01*
X138591666Y-50213169D02*
X138531190Y-50243407D01*
D10*
X129476667Y-116423200D02*
X129619524Y-116470819D01*
X129619524Y-116470819D02*
X129857619Y-116470819D01*
X129857619Y-116470819D02*
X129952857Y-116423200D01*
X129952857Y-116423200D02*
X130000476Y-116375580D01*
X130000476Y-116375580D02*
X130048095Y-116280342D01*
X130048095Y-116280342D02*
X130048095Y-116185104D01*
X130048095Y-116185104D02*
X130000476Y-116089866D01*
X130000476Y-116089866D02*
X129952857Y-116042247D01*
X129952857Y-116042247D02*
X129857619Y-115994628D01*
X129857619Y-115994628D02*
X129667143Y-115947009D01*
X129667143Y-115947009D02*
X129571905Y-115899390D01*
X129571905Y-115899390D02*
X129524286Y-115851771D01*
X129524286Y-115851771D02*
X129476667Y-115756533D01*
X129476667Y-115756533D02*
X129476667Y-115661295D01*
X129476667Y-115661295D02*
X129524286Y-115566057D01*
X129524286Y-115566057D02*
X129571905Y-115518438D01*
X129571905Y-115518438D02*
X129667143Y-115470819D01*
X129667143Y-115470819D02*
X129905238Y-115470819D01*
X129905238Y-115470819D02*
X130048095Y-115518438D01*
X130381429Y-115470819D02*
X130619524Y-116470819D01*
X130619524Y-116470819D02*
X130810000Y-115756533D01*
X130810000Y-115756533D02*
X131000476Y-116470819D01*
X131000476Y-116470819D02*
X131238572Y-115470819D01*
X131524286Y-115470819D02*
X132190952Y-115470819D01*
X132190952Y-115470819D02*
X131762381Y-116470819D01*
X167516667Y-78163200D02*
X167659524Y-78210819D01*
X167659524Y-78210819D02*
X167897619Y-78210819D01*
X167897619Y-78210819D02*
X167992857Y-78163200D01*
X167992857Y-78163200D02*
X168040476Y-78115580D01*
X168040476Y-78115580D02*
X168088095Y-78020342D01*
X168088095Y-78020342D02*
X168088095Y-77925104D01*
X168088095Y-77925104D02*
X168040476Y-77829866D01*
X168040476Y-77829866D02*
X167992857Y-77782247D01*
X167992857Y-77782247D02*
X167897619Y-77734628D01*
X167897619Y-77734628D02*
X167707143Y-77687009D01*
X167707143Y-77687009D02*
X167611905Y-77639390D01*
X167611905Y-77639390D02*
X167564286Y-77591771D01*
X167564286Y-77591771D02*
X167516667Y-77496533D01*
X167516667Y-77496533D02*
X167516667Y-77401295D01*
X167516667Y-77401295D02*
X167564286Y-77306057D01*
X167564286Y-77306057D02*
X167611905Y-77258438D01*
X167611905Y-77258438D02*
X167707143Y-77210819D01*
X167707143Y-77210819D02*
X167945238Y-77210819D01*
X167945238Y-77210819D02*
X168088095Y-77258438D01*
X168421429Y-77210819D02*
X168659524Y-78210819D01*
X168659524Y-78210819D02*
X168850000Y-77496533D01*
X168850000Y-77496533D02*
X169040476Y-78210819D01*
X169040476Y-78210819D02*
X169278572Y-77210819D01*
X169564286Y-77210819D02*
X170183333Y-77210819D01*
X170183333Y-77210819D02*
X169850000Y-77591771D01*
X169850000Y-77591771D02*
X169992857Y-77591771D01*
X169992857Y-77591771D02*
X170088095Y-77639390D01*
X170088095Y-77639390D02*
X170135714Y-77687009D01*
X170135714Y-77687009D02*
X170183333Y-77782247D01*
X170183333Y-77782247D02*
X170183333Y-78020342D01*
X170183333Y-78020342D02*
X170135714Y-78115580D01*
X170135714Y-78115580D02*
X170088095Y-78163200D01*
X170088095Y-78163200D02*
X169992857Y-78210819D01*
X169992857Y-78210819D02*
X169707143Y-78210819D01*
X169707143Y-78210819D02*
X169611905Y-78163200D01*
X169611905Y-78163200D02*
X169564286Y-78115580D01*
X167526667Y-116483200D02*
X167669524Y-116530819D01*
X167669524Y-116530819D02*
X167907619Y-116530819D01*
X167907619Y-116530819D02*
X168002857Y-116483200D01*
X168002857Y-116483200D02*
X168050476Y-116435580D01*
X168050476Y-116435580D02*
X168098095Y-116340342D01*
X168098095Y-116340342D02*
X168098095Y-116245104D01*
X168098095Y-116245104D02*
X168050476Y-116149866D01*
X168050476Y-116149866D02*
X168002857Y-116102247D01*
X168002857Y-116102247D02*
X167907619Y-116054628D01*
X167907619Y-116054628D02*
X167717143Y-116007009D01*
X167717143Y-116007009D02*
X167621905Y-115959390D01*
X167621905Y-115959390D02*
X167574286Y-115911771D01*
X167574286Y-115911771D02*
X167526667Y-115816533D01*
X167526667Y-115816533D02*
X167526667Y-115721295D01*
X167526667Y-115721295D02*
X167574286Y-115626057D01*
X167574286Y-115626057D02*
X167621905Y-115578438D01*
X167621905Y-115578438D02*
X167717143Y-115530819D01*
X167717143Y-115530819D02*
X167955238Y-115530819D01*
X167955238Y-115530819D02*
X168098095Y-115578438D01*
X168431429Y-115530819D02*
X168669524Y-116530819D01*
X168669524Y-116530819D02*
X168860000Y-115816533D01*
X168860000Y-115816533D02*
X169050476Y-116530819D01*
X169050476Y-116530819D02*
X169288572Y-115530819D01*
X169717143Y-116530819D02*
X169907619Y-116530819D01*
X169907619Y-116530819D02*
X170002857Y-116483200D01*
X170002857Y-116483200D02*
X170050476Y-116435580D01*
X170050476Y-116435580D02*
X170145714Y-116292723D01*
X170145714Y-116292723D02*
X170193333Y-116102247D01*
X170193333Y-116102247D02*
X170193333Y-115721295D01*
X170193333Y-115721295D02*
X170145714Y-115626057D01*
X170145714Y-115626057D02*
X170098095Y-115578438D01*
X170098095Y-115578438D02*
X170002857Y-115530819D01*
X170002857Y-115530819D02*
X169812381Y-115530819D01*
X169812381Y-115530819D02*
X169717143Y-115578438D01*
X169717143Y-115578438D02*
X169669524Y-115626057D01*
X169669524Y-115626057D02*
X169621905Y-115721295D01*
X169621905Y-115721295D02*
X169621905Y-115959390D01*
X169621905Y-115959390D02*
X169669524Y-116054628D01*
X169669524Y-116054628D02*
X169717143Y-116102247D01*
X169717143Y-116102247D02*
X169812381Y-116149866D01*
X169812381Y-116149866D02*
X170002857Y-116149866D01*
X170002857Y-116149866D02*
X170098095Y-116102247D01*
X170098095Y-116102247D02*
X170145714Y-116054628D01*
X170145714Y-116054628D02*
X170193333Y-115959390D01*
X148426667Y-97323200D02*
X148569524Y-97370819D01*
X148569524Y-97370819D02*
X148807619Y-97370819D01*
X148807619Y-97370819D02*
X148902857Y-97323200D01*
X148902857Y-97323200D02*
X148950476Y-97275580D01*
X148950476Y-97275580D02*
X148998095Y-97180342D01*
X148998095Y-97180342D02*
X148998095Y-97085104D01*
X148998095Y-97085104D02*
X148950476Y-96989866D01*
X148950476Y-96989866D02*
X148902857Y-96942247D01*
X148902857Y-96942247D02*
X148807619Y-96894628D01*
X148807619Y-96894628D02*
X148617143Y-96847009D01*
X148617143Y-96847009D02*
X148521905Y-96799390D01*
X148521905Y-96799390D02*
X148474286Y-96751771D01*
X148474286Y-96751771D02*
X148426667Y-96656533D01*
X148426667Y-96656533D02*
X148426667Y-96561295D01*
X148426667Y-96561295D02*
X148474286Y-96466057D01*
X148474286Y-96466057D02*
X148521905Y-96418438D01*
X148521905Y-96418438D02*
X148617143Y-96370819D01*
X148617143Y-96370819D02*
X148855238Y-96370819D01*
X148855238Y-96370819D02*
X148998095Y-96418438D01*
X149331429Y-96370819D02*
X149569524Y-97370819D01*
X149569524Y-97370819D02*
X149760000Y-96656533D01*
X149760000Y-96656533D02*
X149950476Y-97370819D01*
X149950476Y-97370819D02*
X150188572Y-96370819D01*
X151045714Y-96370819D02*
X150569524Y-96370819D01*
X150569524Y-96370819D02*
X150521905Y-96847009D01*
X150521905Y-96847009D02*
X150569524Y-96799390D01*
X150569524Y-96799390D02*
X150664762Y-96751771D01*
X150664762Y-96751771D02*
X150902857Y-96751771D01*
X150902857Y-96751771D02*
X150998095Y-96799390D01*
X150998095Y-96799390D02*
X151045714Y-96847009D01*
X151045714Y-96847009D02*
X151093333Y-96942247D01*
X151093333Y-96942247D02*
X151093333Y-97180342D01*
X151093333Y-97180342D02*
X151045714Y-97275580D01*
X151045714Y-97275580D02*
X150998095Y-97323200D01*
X150998095Y-97323200D02*
X150902857Y-97370819D01*
X150902857Y-97370819D02*
X150664762Y-97370819D01*
X150664762Y-97370819D02*
X150569524Y-97323200D01*
X150569524Y-97323200D02*
X150521905Y-97275580D01*
X129456667Y-97293200D02*
X129599524Y-97340819D01*
X129599524Y-97340819D02*
X129837619Y-97340819D01*
X129837619Y-97340819D02*
X129932857Y-97293200D01*
X129932857Y-97293200D02*
X129980476Y-97245580D01*
X129980476Y-97245580D02*
X130028095Y-97150342D01*
X130028095Y-97150342D02*
X130028095Y-97055104D01*
X130028095Y-97055104D02*
X129980476Y-96959866D01*
X129980476Y-96959866D02*
X129932857Y-96912247D01*
X129932857Y-96912247D02*
X129837619Y-96864628D01*
X129837619Y-96864628D02*
X129647143Y-96817009D01*
X129647143Y-96817009D02*
X129551905Y-96769390D01*
X129551905Y-96769390D02*
X129504286Y-96721771D01*
X129504286Y-96721771D02*
X129456667Y-96626533D01*
X129456667Y-96626533D02*
X129456667Y-96531295D01*
X129456667Y-96531295D02*
X129504286Y-96436057D01*
X129504286Y-96436057D02*
X129551905Y-96388438D01*
X129551905Y-96388438D02*
X129647143Y-96340819D01*
X129647143Y-96340819D02*
X129885238Y-96340819D01*
X129885238Y-96340819D02*
X130028095Y-96388438D01*
X130361429Y-96340819D02*
X130599524Y-97340819D01*
X130599524Y-97340819D02*
X130790000Y-96626533D01*
X130790000Y-96626533D02*
X130980476Y-97340819D01*
X130980476Y-97340819D02*
X131218572Y-96340819D01*
X132028095Y-96674152D02*
X132028095Y-97340819D01*
X131790000Y-96293200D02*
X131551905Y-97007485D01*
X131551905Y-97007485D02*
X132170952Y-97007485D01*
X127849405Y-60492319D02*
X127849405Y-59492319D01*
X127849405Y-59492319D02*
X128087500Y-59492319D01*
X128087500Y-59492319D02*
X128230357Y-59539938D01*
X128230357Y-59539938D02*
X128325595Y-59635176D01*
X128325595Y-59635176D02*
X128373214Y-59730414D01*
X128373214Y-59730414D02*
X128420833Y-59920890D01*
X128420833Y-59920890D02*
X128420833Y-60063747D01*
X128420833Y-60063747D02*
X128373214Y-60254223D01*
X128373214Y-60254223D02*
X128325595Y-60349461D01*
X128325595Y-60349461D02*
X128230357Y-60444700D01*
X128230357Y-60444700D02*
X128087500Y-60492319D01*
X128087500Y-60492319D02*
X127849405Y-60492319D01*
X129373214Y-60492319D02*
X128801786Y-60492319D01*
X129087500Y-60492319D02*
X129087500Y-59492319D01*
X129087500Y-59492319D02*
X128992262Y-59635176D01*
X128992262Y-59635176D02*
X128897024Y-59730414D01*
X128897024Y-59730414D02*
X128801786Y-59778033D01*
X125616071Y-62274795D02*
X125158928Y-62274795D01*
X125387500Y-62274795D02*
X125387500Y-61474795D01*
X125387500Y-61474795D02*
X125311309Y-61589080D01*
X125311309Y-61589080D02*
X125235119Y-61665271D01*
X125235119Y-61665271D02*
X125158928Y-61703366D01*
X161186905Y-59617319D02*
X161186905Y-58617319D01*
X161186905Y-58617319D02*
X161425000Y-58617319D01*
X161425000Y-58617319D02*
X161567857Y-58664938D01*
X161567857Y-58664938D02*
X161663095Y-58760176D01*
X161663095Y-58760176D02*
X161710714Y-58855414D01*
X161710714Y-58855414D02*
X161758333Y-59045890D01*
X161758333Y-59045890D02*
X161758333Y-59188747D01*
X161758333Y-59188747D02*
X161710714Y-59379223D01*
X161710714Y-59379223D02*
X161663095Y-59474461D01*
X161663095Y-59474461D02*
X161567857Y-59569700D01*
X161567857Y-59569700D02*
X161425000Y-59617319D01*
X161425000Y-59617319D02*
X161186905Y-59617319D01*
X162139286Y-58712557D02*
X162186905Y-58664938D01*
X162186905Y-58664938D02*
X162282143Y-58617319D01*
X162282143Y-58617319D02*
X162520238Y-58617319D01*
X162520238Y-58617319D02*
X162615476Y-58664938D01*
X162615476Y-58664938D02*
X162663095Y-58712557D01*
X162663095Y-58712557D02*
X162710714Y-58807795D01*
X162710714Y-58807795D02*
X162710714Y-58903033D01*
X162710714Y-58903033D02*
X162663095Y-59045890D01*
X162663095Y-59045890D02*
X162091667Y-59617319D01*
X162091667Y-59617319D02*
X162710714Y-59617319D01*
X158953571Y-61399795D02*
X158496428Y-61399795D01*
X158725000Y-61399795D02*
X158725000Y-60599795D01*
X158725000Y-60599795D02*
X158648809Y-60714080D01*
X158648809Y-60714080D02*
X158572619Y-60790271D01*
X158572619Y-60790271D02*
X158496428Y-60828366D01*
X148406667Y-78163200D02*
X148549524Y-78210819D01*
X148549524Y-78210819D02*
X148787619Y-78210819D01*
X148787619Y-78210819D02*
X148882857Y-78163200D01*
X148882857Y-78163200D02*
X148930476Y-78115580D01*
X148930476Y-78115580D02*
X148978095Y-78020342D01*
X148978095Y-78020342D02*
X148978095Y-77925104D01*
X148978095Y-77925104D02*
X148930476Y-77829866D01*
X148930476Y-77829866D02*
X148882857Y-77782247D01*
X148882857Y-77782247D02*
X148787619Y-77734628D01*
X148787619Y-77734628D02*
X148597143Y-77687009D01*
X148597143Y-77687009D02*
X148501905Y-77639390D01*
X148501905Y-77639390D02*
X148454286Y-77591771D01*
X148454286Y-77591771D02*
X148406667Y-77496533D01*
X148406667Y-77496533D02*
X148406667Y-77401295D01*
X148406667Y-77401295D02*
X148454286Y-77306057D01*
X148454286Y-77306057D02*
X148501905Y-77258438D01*
X148501905Y-77258438D02*
X148597143Y-77210819D01*
X148597143Y-77210819D02*
X148835238Y-77210819D01*
X148835238Y-77210819D02*
X148978095Y-77258438D01*
X149311429Y-77210819D02*
X149549524Y-78210819D01*
X149549524Y-78210819D02*
X149740000Y-77496533D01*
X149740000Y-77496533D02*
X149930476Y-78210819D01*
X149930476Y-78210819D02*
X150168572Y-77210819D01*
X150501905Y-77306057D02*
X150549524Y-77258438D01*
X150549524Y-77258438D02*
X150644762Y-77210819D01*
X150644762Y-77210819D02*
X150882857Y-77210819D01*
X150882857Y-77210819D02*
X150978095Y-77258438D01*
X150978095Y-77258438D02*
X151025714Y-77306057D01*
X151025714Y-77306057D02*
X151073333Y-77401295D01*
X151073333Y-77401295D02*
X151073333Y-77496533D01*
X151073333Y-77496533D02*
X151025714Y-77639390D01*
X151025714Y-77639390D02*
X150454286Y-78210819D01*
X150454286Y-78210819D02*
X151073333Y-78210819D01*
X148446667Y-116483200D02*
X148589524Y-116530819D01*
X148589524Y-116530819D02*
X148827619Y-116530819D01*
X148827619Y-116530819D02*
X148922857Y-116483200D01*
X148922857Y-116483200D02*
X148970476Y-116435580D01*
X148970476Y-116435580D02*
X149018095Y-116340342D01*
X149018095Y-116340342D02*
X149018095Y-116245104D01*
X149018095Y-116245104D02*
X148970476Y-116149866D01*
X148970476Y-116149866D02*
X148922857Y-116102247D01*
X148922857Y-116102247D02*
X148827619Y-116054628D01*
X148827619Y-116054628D02*
X148637143Y-116007009D01*
X148637143Y-116007009D02*
X148541905Y-115959390D01*
X148541905Y-115959390D02*
X148494286Y-115911771D01*
X148494286Y-115911771D02*
X148446667Y-115816533D01*
X148446667Y-115816533D02*
X148446667Y-115721295D01*
X148446667Y-115721295D02*
X148494286Y-115626057D01*
X148494286Y-115626057D02*
X148541905Y-115578438D01*
X148541905Y-115578438D02*
X148637143Y-115530819D01*
X148637143Y-115530819D02*
X148875238Y-115530819D01*
X148875238Y-115530819D02*
X149018095Y-115578438D01*
X149351429Y-115530819D02*
X149589524Y-116530819D01*
X149589524Y-116530819D02*
X149780000Y-115816533D01*
X149780000Y-115816533D02*
X149970476Y-116530819D01*
X149970476Y-116530819D02*
X150208572Y-115530819D01*
X150732381Y-115959390D02*
X150637143Y-115911771D01*
X150637143Y-115911771D02*
X150589524Y-115864152D01*
X150589524Y-115864152D02*
X150541905Y-115768914D01*
X150541905Y-115768914D02*
X150541905Y-115721295D01*
X150541905Y-115721295D02*
X150589524Y-115626057D01*
X150589524Y-115626057D02*
X150637143Y-115578438D01*
X150637143Y-115578438D02*
X150732381Y-115530819D01*
X150732381Y-115530819D02*
X150922857Y-115530819D01*
X150922857Y-115530819D02*
X151018095Y-115578438D01*
X151018095Y-115578438D02*
X151065714Y-115626057D01*
X151065714Y-115626057D02*
X151113333Y-115721295D01*
X151113333Y-115721295D02*
X151113333Y-115768914D01*
X151113333Y-115768914D02*
X151065714Y-115864152D01*
X151065714Y-115864152D02*
X151018095Y-115911771D01*
X151018095Y-115911771D02*
X150922857Y-115959390D01*
X150922857Y-115959390D02*
X150732381Y-115959390D01*
X150732381Y-115959390D02*
X150637143Y-116007009D01*
X150637143Y-116007009D02*
X150589524Y-116054628D01*
X150589524Y-116054628D02*
X150541905Y-116149866D01*
X150541905Y-116149866D02*
X150541905Y-116340342D01*
X150541905Y-116340342D02*
X150589524Y-116435580D01*
X150589524Y-116435580D02*
X150637143Y-116483200D01*
X150637143Y-116483200D02*
X150732381Y-116530819D01*
X150732381Y-116530819D02*
X150922857Y-116530819D01*
X150922857Y-116530819D02*
X151018095Y-116483200D01*
X151018095Y-116483200D02*
X151065714Y-116435580D01*
X151065714Y-116435580D02*
X151113333Y-116340342D01*
X151113333Y-116340342D02*
X151113333Y-116149866D01*
X151113333Y-116149866D02*
X151065714Y-116054628D01*
X151065714Y-116054628D02*
X151018095Y-116007009D01*
X151018095Y-116007009D02*
X150922857Y-115959390D01*
D12*
%TO.C,SW6*%
X161805000Y-97805000D02*
X175775000Y-97805000D01*
X161805000Y-111775000D02*
X161805000Y-97805000D01*
X175775000Y-97805000D02*
X175775000Y-111775000D01*
X175775000Y-111775000D02*
X161805000Y-111775000D01*
%TO.C,SW1*%
X123765000Y-78645000D02*
X137735000Y-78645000D01*
X123765000Y-92615000D02*
X123765000Y-78645000D01*
X137735000Y-78645000D02*
X137735000Y-92615000D01*
X137735000Y-92615000D02*
X123765000Y-92615000D01*
D13*
%TO.C,U1*%
X137990000Y-70917500D02*
X137990000Y-53772500D01*
X139895000Y-72822500D02*
X153865000Y-72822500D01*
X142385000Y-51867500D02*
X142388728Y-50957228D01*
X142888728Y-50457500D02*
X150884000Y-50457500D01*
X151384000Y-50957500D02*
X151384000Y-51867500D01*
D14*
X153865000Y-51867500D02*
X139895000Y-51867500D01*
D13*
X153865000Y-51867500D02*
X139895000Y-51867500D01*
X155770000Y-70917500D02*
X155770000Y-53772500D01*
X137990000Y-53772500D02*
G75*
G02*
X139895000Y-51867500I1905001J-1D01*
G01*
X139895000Y-72822500D02*
G75*
G02*
X137990000Y-70917500I1J1905001D01*
G01*
X142388728Y-50957228D02*
G75*
G02*
X142888728Y-50457501I500018J-291D01*
G01*
X150884000Y-50457500D02*
G75*
G02*
X151384000Y-50957500I0J-500000D01*
G01*
X153865000Y-51867500D02*
G75*
G02*
X155770000Y-53772500I0J-1905000D01*
G01*
X155770000Y-70917500D02*
G75*
G02*
X153865000Y-72822500I-1905000J0D01*
G01*
D15*
X138182000Y-52108500D02*
G75*
G02*
X137678000Y-52108500I-252000J0D01*
G01*
X137678000Y-52108500D02*
G75*
G02*
X138182000Y-52108500I252000J0D01*
G01*
X139325000Y-52988500D02*
G75*
G02*
X138821000Y-52988500I-252000J0D01*
G01*
X138821000Y-52988500D02*
G75*
G02*
X139325000Y-52988500I252000J0D01*
G01*
D12*
%TO.C,SW7*%
X123825000Y-116905000D02*
X137795000Y-116905000D01*
X123825000Y-130875000D02*
X123825000Y-116905000D01*
X137795000Y-116905000D02*
X137795000Y-130875000D01*
X137795000Y-130875000D02*
X123825000Y-130875000D01*
%TO.C,SW3*%
X161865000Y-78645000D02*
X175835000Y-78645000D01*
X161865000Y-92615000D02*
X161865000Y-78645000D01*
X175835000Y-78645000D02*
X175835000Y-92615000D01*
X175835000Y-92615000D02*
X161865000Y-92615000D01*
%TO.C,SW9*%
X161875000Y-116965000D02*
X175845000Y-116965000D01*
X161875000Y-130935000D02*
X161875000Y-116965000D01*
X175845000Y-116965000D02*
X175845000Y-130935000D01*
X175845000Y-130935000D02*
X161875000Y-130935000D01*
%TO.C,SW5*%
X142775000Y-97805000D02*
X156745000Y-97805000D01*
X142775000Y-111775000D02*
X142775000Y-97805000D01*
X156745000Y-97805000D02*
X156745000Y-111775000D01*
X156745000Y-111775000D02*
X142775000Y-111775000D01*
%TO.C,SW4*%
X123805000Y-97775000D02*
X137775000Y-97775000D01*
X123805000Y-111745000D02*
X123805000Y-97775000D01*
X137775000Y-97775000D02*
X137775000Y-111745000D01*
X137775000Y-111745000D02*
X123805000Y-111745000D01*
%TO.C,D1*%
X125787500Y-60787500D02*
X125787500Y-64787500D01*
X125787500Y-60787500D02*
X131387500Y-60787500D01*
X125787500Y-64787500D02*
X130787500Y-64787500D01*
X131387500Y-64187500D02*
X130787500Y-64787500D01*
X131387500Y-64187500D02*
X131387500Y-60787500D01*
%TO.C,D2*%
X159125000Y-59912500D02*
X159125000Y-63912500D01*
X159125000Y-59912500D02*
X164725000Y-59912500D01*
X159125000Y-63912500D02*
X164125000Y-63912500D01*
X164725000Y-63312500D02*
X164125000Y-63912500D01*
X164725000Y-63312500D02*
X164725000Y-59912500D01*
%TO.C,SW2*%
X142755000Y-78645000D02*
X156725000Y-78645000D01*
X142755000Y-92615000D02*
X142755000Y-78645000D01*
X156725000Y-78645000D02*
X156725000Y-92615000D01*
X156725000Y-92615000D02*
X142755000Y-92615000D01*
%TO.C,SW8*%
X142795000Y-116965000D02*
X156765000Y-116965000D01*
X142795000Y-130935000D02*
X142795000Y-116965000D01*
X156765000Y-116965000D02*
X156765000Y-130935000D01*
X156765000Y-130935000D02*
X142795000Y-130935000D01*
%TD*%
M02*
