%TF.GenerationSoftware,KiCad,Pcbnew,9.0.6*%
%TF.CreationDate,2025-12-19T09:04:58+05:30*%
%TF.ProjectId,HACKPAD,4841434b-5041-4442-9e6b-696361645f70,rev?*%
%TF.SameCoordinates,Original*%
%TF.FileFunction,Soldermask,Top*%
%TF.FilePolarity,Negative*%
%FSLAX46Y46*%
G04 Gerber Fmt 4.6, Leading zero omitted, Abs format (unit mm)*
G04 Created by KiCad (PCBNEW 9.0.6) date 2025-12-19 09:04:58*
%MOMM*%
%LPD*%
G01*
G04 APERTURE LIST*
G04 Aperture macros list*
%AMRoundRect*
0 Rectangle with rounded corners*
0 $1 Rounding radius*
0 $2 $3 $4 $5 $6 $7 $8 $9 X,Y pos of 4 corners*
0 Add a 4 corners polygon primitive as box body*
4,1,4,$2,$3,$4,$5,$6,$7,$8,$9,$2,$3,0*
0 Add four circle primitives for the rounded corners*
1,1,$1+$1,$2,$3*
1,1,$1+$1,$4,$5*
1,1,$1+$1,$6,$7*
1,1,$1+$1,$8,$9*
0 Add four rect primitives between the rounded corners*
20,1,$1+$1,$2,$3,$4,$5,0*
20,1,$1+$1,$4,$5,$6,$7,0*
20,1,$1+$1,$6,$7,$8,$9,0*
20,1,$1+$1,$8,$9,$2,$3,0*%
G04 Aperture macros list end*
%ADD10C,1.700000*%
%ADD11C,4.000000*%
%ADD12C,2.200000*%
%ADD13RoundRect,0.152400X1.063600X0.609600X-1.063600X0.609600X-1.063600X-0.609600X1.063600X-0.609600X0*%
%ADD14C,1.524000*%
%ADD15RoundRect,0.152400X-1.063600X-0.609600X1.063600X-0.609600X1.063600X0.609600X-1.063600X0.609600X0*%
%ADD16R,1.600000X0.850000*%
G04 APERTURE END LIST*
D10*
%TO.C,SW6*%
X163710000Y-104790000D03*
D11*
X168790000Y-104790000D03*
D10*
X173870000Y-104790000D03*
D12*
X171330000Y-99710000D03*
X164980000Y-102250000D03*
%TD*%
D10*
%TO.C,SW1*%
X125670000Y-85630000D03*
D11*
X130750000Y-85630000D03*
D10*
X135830000Y-85630000D03*
D12*
X133290000Y-80550000D03*
X126940000Y-83090000D03*
%TD*%
D13*
%TO.C,U1*%
X138425000Y-54788500D03*
D14*
X139260000Y-54788500D03*
D13*
X138425000Y-57328500D03*
D14*
X139260000Y-57328500D03*
D13*
X138425000Y-59868500D03*
D14*
X139260000Y-59868500D03*
D13*
X138425000Y-62408500D03*
D14*
X139260000Y-62408500D03*
D13*
X138425000Y-64948500D03*
D14*
X139260000Y-64948500D03*
D13*
X138425000Y-67488500D03*
D14*
X139260000Y-67488500D03*
D13*
X138425000Y-70028500D03*
D14*
X139260000Y-70028500D03*
X154500000Y-70028500D03*
D15*
X155335000Y-70028500D03*
D14*
X154500000Y-67488500D03*
D15*
X155335000Y-67488500D03*
D14*
X154500000Y-64948500D03*
D15*
X155335000Y-64948500D03*
D14*
X154500000Y-62408500D03*
D15*
X155335000Y-62408500D03*
D14*
X154500000Y-59868500D03*
D15*
X155335000Y-59868500D03*
D14*
X154500000Y-57328500D03*
D15*
X155335000Y-57328500D03*
D14*
X154500000Y-54788500D03*
D15*
X155335000Y-54788500D03*
%TD*%
D10*
%TO.C,SW7*%
X125730000Y-123890000D03*
D11*
X130810000Y-123890000D03*
D10*
X135890000Y-123890000D03*
D12*
X133350000Y-118810000D03*
X127000000Y-121350000D03*
%TD*%
D10*
%TO.C,SW3*%
X163770000Y-85630000D03*
D11*
X168850000Y-85630000D03*
D10*
X173930000Y-85630000D03*
D12*
X171390000Y-80550000D03*
X165040000Y-83090000D03*
%TD*%
D10*
%TO.C,SW9*%
X163780000Y-123950000D03*
D11*
X168860000Y-123950000D03*
D10*
X173940000Y-123950000D03*
D12*
X171400000Y-118870000D03*
X165050000Y-121410000D03*
%TD*%
D10*
%TO.C,SW5*%
X144680000Y-104790000D03*
D11*
X149760000Y-104790000D03*
D10*
X154840000Y-104790000D03*
D12*
X152300000Y-99710000D03*
X145950000Y-102250000D03*
%TD*%
D10*
%TO.C,SW4*%
X125710000Y-104760000D03*
D11*
X130790000Y-104760000D03*
D10*
X135870000Y-104760000D03*
D12*
X133330000Y-99680000D03*
X126980000Y-102220000D03*
%TD*%
D16*
%TO.C,D1*%
X126837500Y-61912500D03*
X126837500Y-63662500D03*
X130337500Y-63662500D03*
X130337500Y-61912500D03*
%TD*%
%TO.C,D2*%
X160175000Y-61037500D03*
X160175000Y-62787500D03*
X163675000Y-62787500D03*
X163675000Y-61037500D03*
%TD*%
D10*
%TO.C,SW2*%
X144660000Y-85630000D03*
D11*
X149740000Y-85630000D03*
D10*
X154820000Y-85630000D03*
D12*
X152280000Y-80550000D03*
X145930000Y-83090000D03*
%TD*%
D10*
%TO.C,SW8*%
X144700000Y-123950000D03*
D11*
X149780000Y-123950000D03*
D10*
X154860000Y-123950000D03*
D12*
X152320000Y-118870000D03*
X145970000Y-121410000D03*
%TD*%
M02*
